<?xml version="1.0" encoding="utf-8" ?>
<svg xmlns="http://www.w3.org/2000/svg" xmlns:xlink="http://www.w3.org/1999/xlink" width="94" height="93">
	<path fill="#FEFEFE" transform="scale(0.0917969 0.0917969)" d="M0 0L1024 0L1024 1024L0 1024L0 0Z"/>
	<path fill="#757575" transform="scale(0.0917969 0.0917969)" d="M461.95 378.188C477.163 392.74 493.615 404.617 515.606 404.071C535.738 403.571 548.687 391.177 563.057 378.898C563.215 384.904 563.063 390.89 562.913 396.894L562.918 399.349C562.898 399.529 562.876 399.709 562.858 399.889C562.393 404.45 563.62 425.806 561.907 427.758L560.575 427.641C550.72 436.792 540.614 450.785 531.566 461.204C527.921 465.401 524.254 469.607 520.447 473.658C518.709 475.509 516.469 477.131 514.924 479.113C514.215 480.023 514.016 480.869 513.923 481.992C514.489 482.944 515.06 483.607 515.856 484.375C514.854 484.3 515.171 484.37 514.344 484.167C512.837 483.797 511.457 483.526 509.911 483.368C509.722 482.306 509.416 481.296 508.886 480.352C504.528 472.584 492.437 461.268 486.156 454.079C479.476 446.433 473.372 438.205 466.303 430.911C465.116 429.687 463.998 428.315 462.296 427.865C461.619 422.99 461.974 417.722 461.987 412.793L461.988 389.199L461.95 378.188Z"/>
	<path fill="#757575" transform="scale(0.0917969 0.0917969)" d="M461.95 378.188C477.163 392.74 493.615 404.617 515.606 404.071C535.738 403.571 548.687 391.177 563.057 378.898C563.215 384.904 563.063 390.89 562.913 396.894C549.243 409.658 533.274 421.256 513.646 420.763C499.133 420.398 484.338 412.103 474.03 402.257C469.774 398.191 466.055 393.468 461.988 389.199L461.95 378.188Z"/>
	<path fill="#757575" transform="scale(0.0917969 0.0917969)" d="M423.103 69.1459C430.999 74.5042 438.801 79.316 448.134 81.7745C466.287 86.5558 484.899 83.2452 503.168 81.2102C535.295 77.6317 567.653 82.6982 591.63 106.001C606.914 120.856 615.423 138.491 619.351 159.343C624.314 185.69 621.686 223.499 615.173 249.536C614.42 252.313 613.734 255.383 611.732 257.557C611.278 252.151 609.797 246.639 608.696 241.312C603.778 217.537 595.655 192.803 577.587 175.634C569.777 178.795 562.44 182.595 554.301 184.966C518.699 195.335 482.288 192.84 449.517 174.99C430.743 187.057 420.774 220.413 416.636 241.545C415.519 247.248 415.638 253.391 414.199 258.934L413.626 259.01C411.179 256.435 409.889 252.059 408.633 248.773C401.364 222.351 397.536 180.84 402.575 154.038C404.194 145.423 406.991 137.137 411.374 129.527C413.002 126.7 414.928 124.067 416.792 121.393C414.08 103.184 414.454 85.871 423.103 69.1459Z"/>
	<path fill="#FFFFFF" transform="scale(0.0917969 0.0917969)" d="M449.517 174.99C482.288 192.84 518.699 195.335 554.301 184.966C562.44 182.595 569.777 178.795 577.587 175.634C595.655 192.803 603.778 217.537 608.696 241.312C609.797 246.639 611.278 252.151 611.732 257.557C613.734 255.383 614.42 252.313 615.173 249.536C616.11 249.662 617.045 249.792 617.984 249.905Q618.476 249.96 618.964 250.039Q619.453 250.119 619.936 250.224Q620.42 250.329 620.897 250.458Q621.375 250.587 621.845 250.741Q622.316 250.894 622.778 251.072Q623.24 251.249 623.692 251.45Q624.144 251.65 624.585 251.874Q625.027 252.098 625.456 252.344Q625.885 252.59 626.302 252.857Q626.718 253.125 627.12 253.413Q627.522 253.702 627.909 254.01Q628.295 254.319 628.666 254.647Q629.036 254.975 629.389 255.322Q629.742 255.668 630.077 256.033Q630.412 256.397 630.728 256.778Q631.044 257.159 631.34 257.555C635.368 262.934 636.289 270.942 635.211 277.477C633.952 285.109 629.136 292.952 622.773 297.365C618.044 300.644 612.735 301.865 607.093 302.167C603.819 323.011 586.622 351.012 573.565 367.47C570.342 371.532 566.234 374.79 563.057 378.898C548.687 391.177 535.738 403.571 515.606 404.071C493.615 404.617 477.163 392.74 461.95 378.188C440.925 356.054 427.457 331.95 418.19 302.995C412.092 301.938 406.71 300.829 401.464 297.388C394.818 293.029 389.7 286.811 388.139 278.849C386.775 271.891 387.612 263.459 391.698 257.555C395.902 251.482 401.792 249.937 408.633 248.773C409.889 252.059 411.179 256.435 413.626 259.01L414.199 258.934C415.638 253.391 415.519 247.248 416.636 241.545C420.774 220.413 430.743 187.057 449.517 174.99Z"/>
	<path fill="#757575" transform="scale(0.0917969 0.0917969)" d="M428.022 446.629C430.987 455.781 433.021 465.363 435.696 474.624C441.883 496.042 448.339 517.445 453.794 539.064C458.051 535.898 478.9 512.623 482.514 507.34C482.791 506.665 483.015 506.091 483.458 505.503C486.794 501.064 496.419 490.311 500.769 487.341C501.893 486.574 503.241 486.316 504.555 486.068C506.267 485.008 508.086 484.208 509.911 483.368C511.457 483.526 512.837 483.797 514.344 484.167C515.171 484.37 514.854 484.3 515.856 484.375C516.998 485.266 518.148 486.136 519.202 487.132C524.764 490.496 534.803 496.958 539.001 501.837C542.506 504.442 546.172 506.91 549.587 509.624C556.898 515.178 564.19 520.943 571.924 525.896C579.715 499.578 586.278 472.918 594.37 446.685Q600.831 449.971 607.349 453.141C639.995 466.358 672.046 481.736 703.95 496.667C712.701 500.762 731.708 508.438 738.823 513.644C745.98 518.88 751.93 526.693 755.373 534.835Q756.893 538.501 757.857 542.35Q758.822 546.2 759.209 550.149C760.048 558.098 759.986 566.195 760.399 574.177L762.713 612.05Q766.212 675.914 770.452 739.733L778.613 865.077Q780.791 893.469 782.514 921.893C783.26 932.703 784.373 943.564 784.706 954.386L700.731 954.446Q694.155 888.492 685.86 822.732C683.259 800.802 680.215 778.776 678.632 756.754C676.701 764.404 677.687 789.786 677.593 798.883L677.116 913.874C677.056 927.427 677.889 941.209 677.325 954.727L345.655 954.684C345.945 936.143 346.347 756.058 345.166 754.444L345.22 752.775C343.51 758.038 343.586 765.229 343.003 770.817L339.246 805.254L327.677 905.88C325.814 922.134 324.238 938.422 322.209 954.656L237.6 954.673C239.527 930.964 240.604 907.158 242.277 883.425L259.375 644.375L264.232 577.855C264.997 567.084 264.605 555.209 267.077 544.73C269.783 533.261 276.636 523.608 285.535 516.061C294.605 508.369 307.386 504.446 318.107 499.42Q342.485 487.788 366.981 476.405C380.373 470.154 393.482 463.064 406.982 457.108C411.406 453.929 422.471 449.499 428.022 446.629Z"/>
	<path fill="#757575" transform="scale(0.0917969 0.0917969)" d="M507.793 781.368L512.057 788.674L515.217 783.492C515.782 784.566 515.853 785.693 515.909 786.888C516.43 797.885 516.272 809.067 516.446 820.088L517.524 874.137C517.753 885.707 518.656 897.25 519.07 908.812Q519.746 931.548 519.946 954.294L503.878 954.307C503.998 936.921 503.88 919.438 504.402 902.065C504.975 883.03 506.071 864.022 506.393 844.966L507.36 803.111C507.469 796.074 506.809 788.304 507.793 781.368Z"/>
	<path fill="#4A85F6" transform="scale(0.0917969 0.0917969)" d="M509.911 483.368C511.457 483.526 512.837 483.797 514.344 484.167C515.171 484.37 514.854 484.3 515.856 484.375C516.998 485.266 518.148 486.136 519.202 487.132C524.764 490.496 534.803 496.958 539.001 501.837C542.506 504.442 546.172 506.91 549.587 509.624C556.898 515.178 564.19 520.943 571.924 525.896Q559.971 571.896 548.851 618.105C546.714 626.867 541.472 655.235 538.1 660.624C537.669 669.197 534.414 678.389 532.229 686.703L518.959 738.239C516.89 746.419 513.97 754.615 512.873 762.981C510.872 754.234 507.787 745.697 505.392 737.041Q498.511 711.841 492.115 686.513C490.146 678.982 486.657 670.817 486.402 662.998C484.018 658.032 483.096 651.102 481.758 645.732L472.4 608.437C466.541 585.232 459.456 562.289 453.794 539.064C458.051 535.898 478.9 512.623 482.514 507.34C482.791 506.665 483.015 506.091 483.458 505.503C486.794 501.064 496.419 490.311 500.769 487.341C501.893 486.574 503.241 486.316 504.555 486.068C506.267 485.008 508.086 484.208 509.911 483.368Z"/>
	<path fill="#757575" transform="scale(0.0917969 0.0917969)" d="M509.911 483.368C511.457 483.526 512.837 483.797 514.344 484.167C515.171 484.37 514.854 484.3 515.856 484.375C516.998 485.266 518.148 486.136 519.202 487.132C514.379 486.071 509.426 486.799 504.555 486.068C506.267 485.008 508.086 484.208 509.911 483.368Z"/>
	<path fill="#757575" transform="scale(0.0917969 0.0917969)" d="M482.514 507.34C487.129 512.806 491.79 519.42 497.505 523.741C497.899 524.038 498.282 524.35 498.672 524.651Q495.359 568.515 491.158 612.303C489.532 629.125 487.24 646.134 486.402 662.998C484.018 658.032 483.096 651.102 481.758 645.732L472.4 608.437C466.541 585.232 459.456 562.289 453.794 539.064C458.051 535.898 478.9 512.623 482.514 507.34Z"/>
	<path fill="#757575" transform="scale(0.0917969 0.0917969)" d="M539.001 501.837C542.506 504.442 546.172 506.91 549.587 509.624C556.898 515.178 564.19 520.943 571.924 525.896Q559.971 571.896 548.851 618.105C546.714 626.867 541.472 655.235 538.1 660.624C537.594 649.143 535.865 637.448 534.726 626Q531.25 592.751 528.236 559.457C527.251 549.065 525.752 538.517 525.542 528.087L525.392 524.891C532.212 518.804 535.302 509.992 539.001 501.837Z"/>
</svg>
